# xmcd CD database file
#
# Track frame offsets:
#	150
#	22753
#	37670
#	56932
#	77568
#	95648
#	119060
#	137934
#	158461
#	174825
#	196300
#	217871
#
# Disc length: 3194 seconds
#
# Revision: 4
# Processed by: cddbd v1.5.2PL0 Copyright (c) Steve Scherf et al.
# Submitted via: CDex 1.70beta3
#
DISCID=930c780c
DTITLE=L'Arc-en-Ciel - KISS
DYEAR=2007
DGENRE=J-Rock
TTITLE0=SEVENTH HEAVEN
TTITLE1=Pretty girl
TTITLE2=MY HEART DRAWS A DREAM
TTITLE3=砂時計
TTITLE4=spiral
TTITLE5=ALONE EN LA VIDA
TTITLE6=DAYBREAK'S BELL
TTITLE7=海辺
TTITLE8=THE BLACK ROSE
TTITLE9=Link -KISS Mix-
TTITLE10=雪の足跡
TTITLE11=Hurry Xmas
EXTD=YEAR: 2007
EXTT0=
EXTT1=
EXTT2=
EXTT3=
EXTT4=
EXTT5=
EXTT6=
EXTT7=
EXTT8=
EXTT9=
EXTT10=
EXTT11=
PLAYORDER=
